<svg xmlns="http://www.w3.org/2000/svg"  viewBox="0 0 50 50" width="50px" height="50px"><path d="M 25 2 C 12.309288 2 2 12.309297 2 25 C 2 37.690703 12.309288 48 25 48 C 37.690712 48 48 37.690703 48 25 C 48 12.309297 37.690712 2 25 2 z M 25 4 C 36.609833 4 46 13.390175 46 25 C 46 36.609825 36.609833 46 25 46 C 13.390167 46 4 36.609825 4 25 C 4 13.390175 13.390167 4 25 4 z M 23.070312 9.8730469 C 22.579313 9.8970469 22.125344 10.100266 21.777344 10.447266 L 21.777344 10.449219 L 14.230469 18.007812 C 14.011094 18.226437 13.805234 18.452554 13.613281 18.6875 C 13.613281 18.6875 13.613281 18.689453 13.613281 18.689453 C 13.42171 18.924016 13.24237 19.165399 13.078125 19.414062 C 13.078125 19.414062 13.078125 19.416016 13.078125 19.416016 C 12.913956 19.664667 12.76185 19.919102 12.625 20.179688 C 12.625 20.179688 12.625 20.181641 12.625 20.181641 C 12.488222 20.442216 12.365326 20.708171 12.255859 20.978516 C 12.255859 20.978516 12.255859 20.980469 12.255859 20.980469 C 12.146461 21.250806 12.048889 21.52479 11.966797 21.802734 C 11.966797 21.802734 11.966797 21.804688 11.966797 21.804688 C 11.884531 22.08322 11.816562 22.364434 11.761719 22.648438 C 11.652031 23.216445 11.597656 23.794219 11.597656 24.371094 C 11.597656 24.659531 11.61125 24.946976 11.638672 25.234375 C 11.720937 26.096573 11.926797 26.947922 12.255859 27.761719 C 12.255859 27.761719 12.255859 27.763672 12.255859 27.763672 C 12.365381 28.034374 12.488166 28.301478 12.625 28.5625 C 12.899219 29.085596 13.229375 29.587389 13.613281 30.058594 C 13.805234 30.294196 14.011094 30.520859 14.230469 30.740234 C 14.230469 30.740234 14.230469 30.742188 14.230469 30.742188 C 15.979469 32.491187 18.288656 33.365234 20.597656 33.365234 C 22.040781 33.365234 23.482656 33.023047 24.789062 32.339844 C 25.572906 31.929922 26.308969 31.398063 26.964844 30.742188 L 26.964844 30.740234 L 30.736328 26.966797 L 30.738281 26.966797 C 31.398906 26.327172 31.499961 25.337826 31.033203 24.595703 C 30.966795 24.490019 30.888247 24.38897 30.798828 24.294922 C 30.067828 23.539922 28.880953 23.515375 28.126953 24.234375 L 28.126953 24.236328 L 28.066406 24.294922 L 28.066406 24.296875 L 24.292969 28.068359 C 22.232969 30.128359 18.950344 30.128359 16.902344 28.068359 C 16.644844 27.810859 16.419687 27.535082 16.226562 27.244141 C 16.13 27.09867 16.041406 26.948915 15.960938 26.796875 C 15.880746 26.64536 15.808349 26.490839 15.744141 26.333984 C 15.744141 26.333984 15.744141 26.332031 15.744141 26.332031 C 15.615391 26.017203 15.5175 25.694395 15.453125 25.365234 C 15.38875 25.036074 15.357422 24.703078 15.357422 24.369141 C 15.357422 24.369141 15.357422 24.367188 15.357422 24.367188 C 15.357422 24.03325 15.38875 23.700254 15.453125 23.371094 C 15.5175 23.041934 15.615391 22.717172 15.744141 22.402344 C 15.808293 22.245473 15.880802 22.090989 15.960938 21.939453 C 15.960938 21.939453 15.960938 21.9375 15.960938 21.9375 C 16.041146 21.785951 16.130364 21.637212 16.226562 21.492188 C 16.226562 21.492188 16.226562 21.490234 16.226562 21.490234 C 16.323125 21.344764 16.426406 21.204114 16.539062 21.066406 C 16.651719 20.928699 16.773594 20.796719 16.902344 20.667969 L 16.902344 20.666016 L 24.449219 13.119141 C 24.634969 12.936391 24.775781 12.725766 24.871094 12.5 C 24.966406 12.274234 25.015781 12.034031 25.019531 11.792969 C 25.021406 11.672438 25.011461 11.550799 24.990234 11.431641 C 24.969117 11.313097 24.936698 11.195796 24.892578 11.082031 C 24.892578 11.082031 24.892578 11.080078 24.892578 11.080078 C 24.803817 10.85189 24.666577 10.635499 24.484375 10.447266 C 24.206125 10.160016 23.853469 9.9745625 23.466797 9.9042969 C 23.337906 9.880875 23.205313 9.8700469 23.070312 9.8730469 z M 29.408203 16.628906 C 29.119203 16.628906 28.830869 16.642584 28.542969 16.669922 C 28.255068 16.69726 27.968195 16.738242 27.683594 16.792969 C 27.398992 16.847695 27.115041 16.915881 26.835938 16.998047 C 26.556834 17.080213 26.281172 17.1755 26.009766 17.285156 C 25.738359 17.394813 25.472447 17.519053 25.210938 17.65625 C 24.949428 17.793447 24.692773 17.944586 24.443359 18.109375 C 23.944531 18.438953 23.472406 18.823422 23.035156 19.263672 L 19.261719 23.037109 C 18.884219 23.396609 18.690188 23.877703 18.679688 24.361328 C 18.669187 24.844953 18.841672 25.331984 19.201172 25.708984 C 19.566672 26.080484 20.047172 26.27225 20.529297 26.28125 C 20.649828 26.2835 20.769514 26.274547 20.888672 26.253906 C 21.246146 26.191984 21.590297 26.027437 21.873047 25.757812 C 21.897047 25.745812 21.909594 25.720984 21.933594 25.708984 L 25.707031 21.923828 C 25.964531 21.667828 26.240332 21.443953 26.53125 21.251953 C 26.676709 21.155953 26.826502 21.068281 26.978516 20.988281 C 27.738582 20.588281 28.572344 20.388672 29.40625 20.388672 C 30.7405 20.388672 32.073656 20.899828 33.097656 21.923828 C 33.226406 22.052578 33.348281 22.186511 33.460938 22.324219 C 33.573594 22.461926 33.676875 22.604529 33.773438 22.75 C 34.159688 23.331883 34.418125 23.970586 34.546875 24.628906 C 34.61125 24.958066 34.642578 25.291062 34.642578 25.625 C 34.642578 25.958938 34.61125 26.293887 34.546875 26.623047 C 34.4825 26.952207 34.384609 27.276969 34.255859 27.591797 C 34.191484 27.749211 34.119531 27.902648 34.039062 28.054688 C 33.958594 28.206727 33.87 28.356482 33.773438 28.501953 C 33.676875 28.647424 33.573594 28.790027 33.460938 28.927734 C 33.348281 29.065442 33.226406 29.197422 33.097656 29.326172 L 25.550781 36.873047 C 25.173281 37.238547 24.979703 37.719047 24.970703 38.201172 C 24.966203 38.442234 25.006953 38.683469 25.095703 38.912109 C 25.140078 39.02643 25.195844 39.138123 25.263672 39.244141 C 25.3315 39.350158 25.412531 39.450672 25.503906 39.544922 C 25.593781 39.639297 25.689951 39.721461 25.792969 39.792969 C 26.308057 40.150508 26.96543 40.223516 27.535156 40.005859 C 27.649102 39.962328 27.758107 39.906523 27.863281 39.839844 C 27.968455 39.773164 28.069359 39.695344 28.162109 39.605469 C 28.186109 39.581469 28.210656 39.568922 28.222656 39.544922 L 35.769531 31.998047 C 35.988906 31.779422 36.194766 31.551437 36.386719 31.316406 C 36.578672 31.081375 36.755391 30.839094 36.919922 30.589844 C 37.084453 30.340594 37.235937 30.0855 37.373047 29.824219 C 37.510156 29.562938 37.634453 29.296516 37.744141 29.025391 C 37.853828 28.754266 37.948984 28.478 38.03125 28.199219 C 38.278047 27.362875 38.402344 26.496734 38.402344 25.630859 C 38.402344 24.764984 38.278047 23.898844 38.03125 23.0625 C 37.948984 22.783719 37.853828 22.509406 37.744141 22.238281 C 37.524766 21.696031 37.248984 21.170375 36.919922 20.671875 C 36.590859 20.173375 36.208281 19.700922 35.769531 19.263672 C 34.020531 17.502672 31.708203 16.628906 29.408203 16.628906 z"/></svg>